<?xml version="1.0" encoding="UTF-8" standalone="no"?><svg xmlns="http://www.w3.org/2000/svg" xmlns:xlink= "http://www.w3.org/1999/xlink" width="600" height="390" aria-label="A chart." style="overflow: hidden;"><defs id="_ABSTRACT_RENDERER_ID_17"><filter id="_ABSTRACT_RENDERER_ID_18"><feGaussianBlur in="SourceAlpha" stdDeviation="2"></feGaussianBlur><feOffset dx="1" dy="1"></feOffset><feComponentTransfer><feFuncA type="linear" slope="0.1"></feFuncA></feComponentTransfer><feMerge><feMergeNode></feMergeNode><feMergeNode in="SourceGraphic"></feMergeNode></feMerge></filter></defs><rect x="0" y="0" width="600" height="390" stroke="none" stroke-width="0" fill="#ffffff"></rect><g><rect x="365" y="75" width="121" height="160" stroke="none" stroke-width="0" fill-opacity="0" fill="#ffffff"></rect><g column-id="PlayToEarn"><rect x="365" y="75" width="121" height="13" stroke="none" stroke-width="0" fill-opacity="0" fill="#ffffff"></rect><g><text text-anchor="start" x="383" y="86.05" font-family="Arial" font-size="13" stroke="none" stroke-width="0" fill="#222222">PlayToEarn</text></g><circle cx="371.5" cy="81.5" r="6.5" stroke="none" stroke-width="0" fill="#3366cc"></circle></g><g column-id="IDO"><rect x="365" y="96" width="121" height="13" stroke="none" stroke-width="0" fill-opacity="0" fill="#ffffff"></rect><g><text text-anchor="start" x="383" y="107.05" font-family="Arial" font-size="13" stroke="none" stroke-width="0" fill="#222222">IDO</text></g><circle cx="371.5" cy="102.5" r="6.5" stroke="none" stroke-width="0" fill="#dc3912"></circle></g><g column-id="CEX"><rect x="365" y="117" width="121" height="13" stroke="none" stroke-width="0" fill-opacity="0" fill="#ffffff"></rect><g><text text-anchor="start" x="383" y="128.05" font-family="Arial" font-size="13" stroke="none" stroke-width="0" fill="#222222">CEX</text></g><circle cx="371.5" cy="123.5" r="6.5" stroke="none" stroke-width="0" fill="#ff9900"></circle></g><g column-id="Team"><rect x="365" y="138" width="121" height="13" stroke="none" stroke-width="0" fill-opacity="0" fill="#ffffff"></rect><g><text text-anchor="start" x="383" y="149.05" font-family="Arial" font-size="13" stroke="none" stroke-width="0" fill="#222222">Team</text></g><circle cx="371.5" cy="144.5" r="6.5" stroke="none" stroke-width="0" fill="#109618"></circle></g><g column-id="Community"><rect x="365" y="159" width="121" height="13" stroke="none" stroke-width="0" fill-opacity="0" fill="#ffffff"></rect><g><text text-anchor="start" x="383" y="170.05" font-family="Arial" font-size="13" stroke="none" stroke-width="0" fill="#222222">Community</text></g><circle cx="371.5" cy="165.5" r="6.5" stroke="none" stroke-width="0" fill="#990099"></circle></g><g column-id="Marketing"><rect x="365" y="180" width="121" height="13" stroke="none" stroke-width="0" fill-opacity="0" fill="#ffffff"></rect><g><text text-anchor="start" x="383" y="191.05" font-family="Arial" font-size="13" stroke="none" stroke-width="0" fill="#222222">Marketing</text></g><circle cx="371.5" cy="186.5" r="6.5" stroke="none" stroke-width="0" fill="#0099c6"></circle></g><g column-id="Development"><rect x="365" y="201" width="121" height="13" stroke="none" stroke-width="0" fill-opacity="0" fill="#ffffff"></rect><g><text text-anchor="start" x="383" y="212.05" font-family="Arial" font-size="13" stroke="none" stroke-width="0" fill="#222222">Development</text></g><circle cx="371.5" cy="207.5" r="6.5" stroke="none" stroke-width="0" fill="#dd4477"></circle></g><g column-id="Dex"><rect x="365" y="222" width="121" height="13" stroke="none" stroke-width="0" fill-opacity="0" fill="#ffffff"></rect><g><text text-anchor="start" x="383" y="233.05" font-family="Arial" font-size="13" stroke="none" stroke-width="0" fill="#222222">Dex</text></g><circle cx="371.5" cy="228.5" r="6.5" stroke="none" stroke-width="0" fill="#66aa00"></circle></g></g><g><path d="M344,184.6L344,207.4A114,91.2,0,0,1,265.227937358744,294.13635428611803L265.227937358744,271.33635428611797A114,91.2,0,0,0,344,184.6" stroke="#264d99" stroke-width="1" fill="#264d99"></path><path d="M230,184.6L230,207.4L265.227937358744,294.136354286118L265.227937358744,271.33635428611797" stroke="#264d99" stroke-width="1" fill="#264d99"></path><path d="M230,184.6L230,93.39999999999999A114,91.2,0,0,1,265.227937358744,271.33635428611797L230,184.6A0,0,0,0,0,230,184.6" stroke="#3366cc" stroke-width="1" fill="#3366cc"></path><text text-anchor="start" x="302.5858549235812" y="178.65457844926448" font-family="Arial" font-size="13" stroke="none" stroke-width="0" fill="#ffffff">45%</text></g><g><path d="M230,184.6L230,207.4L194.77206264125599,120.66364571388199L194.77206264125599,97.863645713882" stroke="#4d8000" stroke-width="1" fill="#4d8000"></path><path d="M230,184.6L194.77206264125599,97.863645713882A114,91.2,0,0,1,230,93.39999999999999L230,184.6A0,0,0,0,0,230,184.6" stroke="#66aa00" stroke-width="1" fill="#66aa00"></path></g><g><path d="M230,184.6L230,207.4L162.99248123865806,133.6176501130048L162.99248123865806,110.81765011300479" stroke="#a63359" stroke-width="1" fill="#a63359"></path><path d="M230,184.6L162.99248123865806,110.81765011300479A114,91.2,0,0,1,194.77206264125599,97.863645713882L230,184.6A0,0,0,0,0,230,184.6" stroke="#dd4477" stroke-width="1" fill="#dd4477"></path></g><g><path d="M230,184.6L230,207.4L130.10103847499954,163.46406492192355L130.10103847499954,140.66406492192354" stroke="#007395" stroke-width="1" fill="#007395"></path><path d="M230,184.6L130.10103847499954,140.66406492192354A114,91.2,0,0,1,162.99248123865794,110.81765011300485L230,184.6A0,0,0,0,0,230,184.6" stroke="#0099c6" stroke-width="1" fill="#0099c6"></path><text text-anchor="start" x="154.24858687957231" y="143.92680250945415" font-family="Arial" font-size="13" stroke="none" stroke-width="0" fill="#ffffff">7%</text></g><g><path d="M116,184.6L116,207.4A114,91.2,0,0,1,116,207.4L116,184.6A114,91.2,0,0,0,116,184.6" stroke="#730073" stroke-width="1" fill="#730073"></path><path d="M230,184.6L230,207.4L116,207.4L116,184.6" stroke="#730073" stroke-width="1" fill="#730073"></path><path d="M230,184.6L116,184.6A114,91.2,0,0,1,130.10103847499954,140.66406492192354L230,184.6A0,0,0,0,0,230,184.6" stroke="#990099" stroke-width="1" fill="#990099"></path><text text-anchor="start" x="133.76745678086158" y="171.90795908940282" font-family="Arial" font-size="13" stroke="none" stroke-width="0" fill="#ffffff">8%</text></g><g><path d="M137.772062641256,238.20601500907355L137.772062641256,261.00601500907356A114,91.2,0,0,1,116,207.4L116,184.6A114,91.2,0,0,0,137.772062641256,238.20601500907355" stroke="#0c7112" stroke-width="1" fill="#0c7112"></path><path d="M230,184.6L230,207.4L137.772062641256,261.00601500907356L137.772062641256,238.20601500907355" stroke="#0c7112" stroke-width="1" fill="#0c7112"></path><path d="M230,184.6L137.772062641256,238.20601500907355A114,91.2,0,0,1,116,184.6L230,184.6A0,0,0,0,0,230,184.6" stroke="#109618" stroke-width="1" fill="#109618"></path><text text-anchor="start" x="135.24329543183364" y="209.71765578771726" font-family="Arial" font-size="13" stroke="none" stroke-width="0" fill="#ffffff">10%</text></g><g><path d="M194.77206264125596,271.33635428611797L194.77206264125596,294.136354286118A114,91.2,0,0,1,137.772062641256,261.00601500907356L137.772062641256,238.20601500907355A114,91.2,0,0,0,194.77206264125596,271.33635428611797" stroke="#bf7300" stroke-width="1" fill="#bf7300"></path><path d="M230,184.6L230,207.4L194.77206264125596,294.136354286118L194.77206264125596,271.33635428611797" stroke="#bf7300" stroke-width="1" fill="#bf7300"></path><path d="M230,184.6L194.77206264125596,271.33635428611797A114,91.2,0,0,1,137.772062641256,238.20601500907355L230,184.6A0,0,0,0,0,230,184.6" stroke="#ff9900" stroke-width="1" fill="#ff9900"></path><text text-anchor="start" x="166.20796369940817" y="243.2777485604111" font-family="Arial" font-size="13" stroke="none" stroke-width="0" fill="#ffffff">10%</text></g><g><path d="M265.227937358744,271.33635428611797L265.227937358744,294.136354286118A114,91.2,0,0,1,194.77206264125596,294.13635428611803L194.77206264125596,271.33635428611797A114,91.2,0,0,0,265.227937358744,271.33635428611797" stroke="#a52b0e" stroke-width="1" fill="#a52b0e"></path><path d="M230,184.6L265.227937358744,271.33635428611797A114,91.2,0,0,1,194.77206264125596,271.33635428611797L230,184.6A0,0,0,0,0,230,184.6" stroke="#dc3912" stroke-width="1" fill="#dc3912"></path><text text-anchor="start" x="217.00000000000003" y="260.19952481567725" font-family="Arial" font-size="13" stroke="none" stroke-width="0" fill="#ffffff">10%</text></g><g></g></svg>